<svg width="229" height="236" viewBox="0 0 229 236" fill="none" xmlns="http://www.w3.org/2000/svg">
<path d="M162.395 111.204C178.559 107.04 190.469 99.9704 188.997 95.4144C187.524 90.8585 173.226 90.5409 157.061 94.7051C140.897 98.8693 128.987 105.938 130.46 110.494C131.932 115.05 146.23 115.368 162.395 111.204Z" fill="#414A4C"/>
<path d="M137.061 57.3996C147.927 55.3979 155.234 44.6356 153.297 33.4833C151.361 22.3309 140.886 14.844 130.02 16.8457C119.153 18.8474 111.847 29.6097 113.783 40.7621C115.719 51.9144 126.194 59.4013 137.061 57.3996ZM71.0291 129.201L107.569 151.765L116.371 202.458L136.128 198.818C136.128 198.818 129.525 146.186 121.525 137.693C113.525 129.201 95.7439 118.378 95.7439 118.378L118.917 87.945L128.228 94.6C143.358 105.414 155.282 101.154 176.027 97.3324L176.027 93.2123C161.209 95.9419 151.056 85.1635 140.581 77.6766L118.467 61.8709C112.824 58.7254 107.533 57.6075 101.605 58.6993C95.6783 59.7911 91.0911 62.7287 88.8316 67.33L66.1004 100.813C62.853 105.596 61.7574 111.029 62.6376 116.099C63.6937 122.182 66.5496 126.887 71.0291 129.201Z" fill="#414A4C"/>
<rect x="119.189" y="186.821" width="27" height="13.4328" rx="6.71638" transform="rotate(18.0588 119.189 186.821)" fill="#414A4C"/>
<path d="M114.741 196.404L86.9852 139.009C85.069 135.047 83.1402 131.955 82.677 132.103L75.968 134.247C75.5048 134.395 76.6827 137.728 78.5989 141.69L106.355 199.084C108.271 203.046 110.2 206.138 110.663 205.99L117.372 203.846C117.835 203.698 116.658 200.366 114.741 196.404Z" fill="#414A4C"/>
<path d="M192.444 230.876C209.428 230.971 223.286 216.92 223.397 199.493C223.508 182.066 209.83 167.862 192.847 167.768C175.863 167.673 162.006 181.724 161.895 199.151C161.783 216.578 175.461 230.782 192.444 230.876Z" stroke="#414A4C" stroke-width="10"/>
<path d="M35.7746 230.804C52.758 230.898 66.6158 216.847 66.7269 199.42C66.838 181.993 53.1603 167.79 36.1769 167.695C19.1935 167.601 5.3357 181.652 5.22458 199.079C5.11346 216.506 18.7912 230.71 35.7746 230.804Z" stroke="#414A4C" stroke-width="10"/>
<path d="M109.518 199.007L39.8665 198.566C35.0581 198.535 31.1575 198.839 31.1543 199.245L31.1074 205.115C31.1042 205.52 34.9995 205.873 39.8079 205.903L109.459 206.345C114.267 206.375 118.168 206.072 118.171 205.666L118.218 199.796C118.221 199.391 114.326 199.038 109.518 199.007Z" fill="#414A4C"/>
<path d="M164.113 148.586L110.976 195.477C107.308 198.715 104.631 201.562 104.997 201.837L110.3 205.82C110.666 206.095 113.936 203.694 117.605 200.457L170.741 153.566C174.41 150.329 177.087 147.481 176.721 147.206L171.418 143.223C171.052 142.948 167.781 145.349 164.113 148.586Z" fill="#414A4C"/>
<path d="M157.366 108.376L188.924 197.683C191.103 203.849 193.257 208.756 193.735 208.645L200.665 207.028C201.143 206.917 199.765 201.828 197.586 195.663L166.028 106.356C163.849 100.191 161.695 95.283 161.217 95.3946L154.287 97.0109C153.809 97.1224 155.187 102.211 157.366 108.376Z" fill="#414A4C"/>
<path d="M87.9707 164.157L33.8231 195.842C30.085 198.029 31.4493 201.612 31.7297 201.94L31.6237 205.133C31.9041 205.46 35.1618 203.952 38.8999 201.765L93.0474 170.08C96.7856 167.892 99.5886 165.854 99.3082 165.527L95.2468 160.789C94.9665 160.461 91.7088 161.969 87.9707 164.157Z" fill="#414A4C"/>
<path d="M75.6135 139.037C89.8204 141.456 102.109 140.304 103.061 136.463C104.014 132.623 93.2686 127.548 79.0617 125.129C64.8549 122.709 52.566 123.862 51.6138 127.702C50.6615 131.543 61.4066 136.618 75.6135 139.037Z" fill="#414A4C"/>
<path d="M108.261 213.828C116.004 213.869 122.314 208.83 122.356 202.571C122.397 196.312 116.153 191.204 108.409 191.163C100.666 191.121 94.3554 196.161 94.3143 202.42C94.2732 208.678 100.517 213.786 108.261 213.828Z" fill="#414A4C"/>
<path d="M118.214 14.2742C112.727 17.8853 109.745 22.7206 108.656 28.9056C107.568 35.0905 109.53 40.6488 113.933 45.7058L132.277 66.7764C133.194 67.83 134.538 68.5475 136.125 68.7182C137.712 68.889 139.145 68.4703 140.212 67.6302L141.919 66.286C143.199 65.2779 144.508 63.8911 146.245 62.1682L131.203 44.8902C129.369 42.7832 128.754 40.4254 128.964 37.7743C129.173 35.1233 130.359 32.7683 132.279 31.2561C135.692 28.5678 139.323 28.1945 143.355 30.347L156.64 36.9325C156.081 31.3342 153.906 25.944 149.9 20.9297C146.291 15.9581 141.129 12.9201 134.84 11.4797C128.552 10.0392 123.274 10.9992 118.214 14.2742Z" fill="#8AD0AB"/>
<path d="M108.375 32.852C108.371 32.8514 108.371 32.8514 108.379 32.8503C108.372 32.851 108.366 32.852 108.371 32.8514C108.364 32.8528 108.374 32.8515 108.374 32.8515C108.374 32.8515 108.379 32.8503 108.371 32.8514L108.374 32.8515C108.374 32.8515 108.364 32.8528 108.371 32.8514C108.364 32.8524 108.379 32.8501 108.374 32.8515L108.371 32.8514C108.364 32.8528 108.381 32.8501 108.371 32.8514C108.379 32.8503 108.371 32.8513 108.375 32.852ZM132.462 30.7093C130.906 31.6844 129.694 33.1583 129.042 34.6378C128.391 36.1174 128.086 40.9197 129.032 42.0939L129.65 43.3039L131.069 45.2781L134.854 49.5489L146.198 62.0542C153.724 55.1949 155.336 43.607 156.671 36.6717L140.569 28.9152C137.725 28.7993 135.747 28.6502 132.462 30.7093Z" fill="#B8E0CB" fill-opacity="0.5"/>
<path d="M124.254 206.694L124.284 206.632L124.272 206.562C124.272 206.563 124.272 206.563 124.272 206.563C124.272 206.563 124.271 206.546 124.274 206.508C124.277 206.465 124.284 206.407 124.298 206.34C124.325 206.204 124.376 206.037 124.463 205.876C124.637 205.555 124.944 205.27 125.494 205.269L144.459 205.248C145.107 205.248 145.695 205.278 146.121 205.327C146.335 205.351 146.499 205.379 146.605 205.408C146.607 205.408 146.608 205.408 146.61 205.409L146.971 207.389C146.969 207.389 146.968 207.39 146.966 207.39C146.87 207.419 146.717 207.447 146.512 207.472C146.104 207.522 145.528 207.553 144.88 207.554L135.397 207.565L125.914 207.575C125.266 207.576 124.678 207.546 124.253 207.497C124.106 207.48 123.983 207.462 123.886 207.443L124.254 206.694Z" fill="#414A4C" stroke="#414A4C" stroke-width="0.5"/>
<path d="M114.078 201L132.019 207.151" stroke="#414A4C" stroke-width="1.5"/>
<path d="M42.4771 219.034C41.9747 219.068 41.4769 218.867 41.0934 218.475C40.7098 218.083 40.4719 217.532 40.432 216.943C40.392 216.355 40.5533 215.777 40.8803 215.337C41.2073 214.897 41.6733 214.63 42.1758 214.596C44.7986 214.418 47.3007 213.333 49.3656 211.478C51.4305 209.623 52.9655 207.082 53.7765 204.176C54.5875 201.27 54.638 198.129 53.9218 195.151C53.2055 192.173 51.7546 189.492 49.7525 187.445L47.7661 185.085L47.7657 185.079C47.7677 185.081 47.7734 185.046 47.7657 185.079C47.764 185.082 47.777 185.044 47.7657 185.079C47.764 185.078 47.7774 185.048 47.7657 185.079C47.76 185.079 47.7816 185.047 47.7657 185.079C47.7656 185.083 47.7817 185.05 47.7657 185.079C47.7697 185.084 47.7701 185.074 47.7657 185.079C47.758 185.112 47.7893 185.056 47.7657 185.079C47.7615 185.085 47.7714 185.079 47.7657 185.079C47.7603 185.082 47.7613 185.085 47.7657 185.079C47.7637 185.078 47.7498 185.112 47.7657 185.079C47.7657 185.079 47.3117 184.076 47.334 183.639C47.3502 183.322 47.3673 182.316 47.7838 181.958C48.2002 181.599 48.6034 181.572 48.8841 181.553C49.1648 181.534 49.7484 181.824 49.7484 181.824L52.2187 184.125C54.7929 186.756 56.6584 190.204 57.5793 194.033C58.5002 197.862 58.4352 201.9 57.3925 205.637C56.3498 209.373 54.3762 212.64 51.7212 215.025C49.0663 217.409 45.8494 218.805 42.4771 219.034Z" fill="#414A4C" fill-opacity="0.8"/>
<path d="M199.477 219.034C198.975 219.068 198.477 218.867 198.093 218.475C197.71 218.083 197.472 217.532 197.432 216.943C197.392 216.355 197.553 215.777 197.88 215.337C198.207 214.897 198.673 214.63 199.176 214.596C201.799 214.418 204.301 213.333 206.366 211.478C208.43 209.623 209.965 207.082 210.776 204.176C211.587 201.27 211.638 198.129 210.922 195.151C210.206 192.173 208.755 189.492 206.753 187.445L204.766 185.085L204.766 185.079C204.768 185.081 204.773 185.046 204.766 185.079C204.764 185.082 204.777 185.044 204.766 185.079C204.764 185.078 204.777 185.048 204.766 185.079C204.76 185.079 204.782 185.047 204.766 185.079C204.766 185.083 204.782 185.05 204.766 185.079C204.77 185.084 204.77 185.074 204.766 185.079C204.758 185.112 204.789 185.056 204.766 185.079C204.762 185.085 204.771 185.079 204.766 185.079C204.76 185.082 204.761 185.085 204.766 185.079C204.764 185.078 204.75 185.112 204.766 185.079C204.766 185.079 204.312 184.076 204.334 183.639C204.35 183.322 204.367 182.316 204.784 181.958C205.2 181.599 205.603 181.572 205.884 181.553C206.165 181.534 206.748 181.824 206.748 181.824L209.219 184.125C211.793 186.756 213.658 190.204 214.579 194.033C215.5 197.862 215.435 201.9 214.392 205.637C213.35 209.373 211.376 212.64 208.721 215.025C206.066 217.409 202.849 218.805 199.477 219.034Z" fill="#414A4C" fill-opacity="0.8"/>
<path d="M128.222 79.0082C131.162 75.2697 132.598 71.6705 131.006 70.4502C131.006 70.4502 122.376 63.0652 116.876 60.2309C113.333 58.4051 108.538 57.4055 108.538 57.4055C101.834 55.715 90.611 61.1373 87.6713 64.8758L53.0584 112.286C50.1187 116.024 50.4802 121.336 52.0729 122.557L75.8963 136.823C77.489 138.044 81.7487 137.022 84.6884 133.284L128.222 79.0082Z" fill="#FCFF71"/>
<path d="M123.376 89.6545C131.279 90.3579 133.378 84.4462 134.012 77.3233C135.654 70.5752 116.945 58.2134 109.043 57.51C101.141 56.8066 94.2204 62.0106 93.5864 69.1335C92.9523 76.2564 113.154 88.7446 123.376 89.6545Z" fill="#414A4C"/>
<path d="M58.4212 27.6075L43.6276 33.1929C40.6877 34.3008 37.871 36.7289 35.7969 39.9434L19.279 65.5779C17.2086 68.7954 16.0519 72.5337 16.0631 75.971L16.1103 93.2707C16.1179 96.7094 17.2927 99.5675 19.3764 101.216L43.4205 120.195C45.5067 121.842 48.331 122.143 51.272 121.033C54.2129 119.922 57.0297 117.491 59.1027 114.274L90.3668 65.7546C92.4398 62.5376 93.5991 58.7981 93.5897 55.3589C93.5803 51.9197 92.403 49.0625 90.3167 47.4158L66.2726 28.437C64.1852 26.7937 61.3611 26.4953 58.4212 27.6075ZM61.6245 79.6662C58.8606 83.9556 55.1049 87.1971 51.1836 88.6776C47.2623 90.1581 43.4966 89.7564 40.715 87.5608C40.0196 87.0118 39.6271 86.0594 39.624 84.913C39.6209 83.7666 40.0073 82.5202 40.6983 81.4478C41.3893 80.3755 42.3282 79.5651 43.3085 79.1949C44.2888 78.8248 45.2303 78.9252 45.9257 79.4742C47.3165 80.572 49.1993 80.7728 51.16 80.0326C53.1206 79.2923 54.9985 77.6716 56.3804 75.5269C57.7624 73.3822 58.5353 70.8892 58.529 68.5964C58.5227 66.3036 57.7379 64.3988 56.347 63.301C55.6516 62.752 55.2592 61.7996 55.2561 60.6532C55.2529 59.5068 55.6394 58.2604 56.3303 57.188C57.0213 56.1156 57.9603 55.3053 58.9406 54.9351C59.9209 54.565 60.8623 54.6654 61.5577 55.2144C64.3394 57.41 65.9091 61.2196 65.9216 65.8052C65.9342 70.3908 64.3885 75.3768 61.6245 79.6662ZM23.4622 83.6413L23.4337 73.1882C23.4538 72.0352 23.8429 70.7954 24.5231 69.7173L41.041 44.0827C41.7405 43.0198 42.6728 42.2088 43.6512 41.8122L52.59 38.4372L23.4622 83.6413Z" fill="#8AD0AB"/>
<rect width="30.186" height="64.4155" transform="matrix(0.786164 0.610116 -0.529938 0.854305 60.9531 36.0576)" fill="#8AD0AB"/>
<path d="M58.7521 44.7593L27.0807 94.7513C26.9273 94.8494 26.8969 95.8491 27.0358 96.1976L29.0721 97.6362C29.2483 97.7061 30.2357 97.1298 32.4221 93.6786L64.0936 43.6866C66.28 40.2354 67.9097 37.381 67.7335 37.3112L65.1812 36.3001C65.005 36.2303 60.9386 41.3081 58.7521 44.7593Z" fill="#414A4C"/>
<path d="M111.723 93.4658L91.747 78.4519C90.368 77.4154 89.089 76.7894 88.8905 77.0535L86.0144 80.8802C85.8159 81.1444 86.7729 82.1988 88.1519 83.2353L108.128 98.2492C109.507 99.2857 110.786 99.9118 110.985 99.6476L113.861 95.8209C114.059 95.5567 113.102 94.5023 111.723 93.4658Z" fill="#414A4C" fill-opacity="0.4"/>
<path d="M100.511 108.306L80.7234 93.4342C79.3574 92.4075 78.089 91.7894 77.8905 92.0535L75.0144 95.8802C74.8159 96.1444 75.7623 97.1908 77.1283 98.2175L96.9157 113.089C98.2817 114.116 99.5501 114.734 99.7486 114.47L102.625 110.643C102.823 110.379 101.877 109.333 100.511 108.306Z" fill="#414A4C" fill-opacity="0.4"/>
<path d="M84.2581 162.656L86.5855 161.445C86.7691 161.35 86.4846 160.439 85.95 159.411L79.1743 146.382C78.6397 145.354 78.0574 144.598 77.8738 144.693L75.5464 145.904C75.3628 145.999 75.6473 146.91 76.1819 147.938L82.9576 160.967C83.4922 161.995 84.0745 162.751 84.2581 162.656Z" stroke="#414A4C" stroke-width="6"/>
<path d="M84.041 163.356L74.8049 145.732C74.1673 144.516 73.487 143.615 73.2853 143.721L70.9878 145.081C70.8023 145.353 70.5168 146.429 71.1545 147.645L80.3906 165.269C81.0282 166.486 82.4879 166.886 82.6896 166.78L84.8305 165.75C85.0321 165.644 84.6786 164.573 84.041 163.356Z" fill="#FCFF71"/>
<path d="M176.575 121.136L174.1 122.002C173.904 122.071 174.018 122.901 174.354 123.857L178.611 135.971C178.947 136.927 179.377 137.646 179.572 137.578L182.048 136.712C182.243 136.643 182.129 135.813 181.793 134.857L177.537 122.743C177.201 121.787 176.77 121.068 176.575 121.136Z" stroke="#414A4C" stroke-width="6"/>
<path d="M176.207 120.468L182.226 137.425C182.642 138.596 183.179 139.474 183.427 139.386L186.289 138.242C186.558 137.998 187.129 137.01 186.713 135.839L180.695 118.882C180.279 117.711 178.762 117.258 178.514 117.345L175.904 118.19C175.656 118.277 175.792 119.297 176.207 120.468Z" fill="#FCFF71"/>
</svg>
