<svg width="160" height="172" viewBox="0 0 160 172" fill="none" xmlns="http://www.w3.org/2000/svg">
<path d="M116.795 65.0947C118.433 65.0947 120.004 65.6311 121.162 66.5859C122.321 67.5406 122.971 68.8355 122.971 70.1858V75.2768H153.855V105.823H141.384L158.346 144.235C159.555 146.819 160.111 149.579 159.982 152.347C159.852 155.114 159.039 157.831 157.592 160.331C156.145 162.83 154.094 165.06 151.566 166.885C149.038 168.709 146.084 170.089 142.887 170.94C139.689 171.791 136.315 172.096 132.969 171.835C129.624 171.575 126.378 170.755 123.431 169.425C120.483 168.095 117.896 166.284 115.826 164.101C113.757 161.919 112.25 159.412 111.396 156.733H85.1328C83.729 161.202 80.5261 165.144 76.0487 167.916C71.5712 170.688 66.0845 172.125 60.487 171.991C54.8895 171.858 49.5129 170.162 45.2377 167.181C40.9625 164.2 38.042 160.11 36.9544 155.583C34.9527 154.721 33.2759 153.423 32.1063 151.831C30.9367 150.239 30.3191 148.413 30.3206 146.551V95.6409C30.3206 94.2907 30.9713 92.9958 32.1297 92.041C33.288 91.0863 34.8591 90.5499 36.4973 90.5499H79.7344C81.3725 90.5499 82.9436 91.0863 84.102 92.041C85.2603 92.9958 85.9111 94.2907 85.9111 95.6409V121.096C85.9111 122.446 86.5619 123.741 87.7202 124.696C88.8786 125.651 90.4497 126.187 92.0878 126.187H104.441C106.079 126.187 107.651 125.651 108.809 124.696C109.967 123.741 110.618 122.446 110.618 121.096V75.2768H92.0878V65.0947H116.795ZM135.325 141.46C132.698 141.461 130.139 142.152 128.021 143.433C125.903 144.713 124.336 146.517 123.546 148.583C122.757 150.648 122.787 152.867 123.631 154.917C124.476 156.967 126.092 158.742 128.244 159.984C130.397 161.226 132.973 161.869 135.599 161.822C138.226 161.775 140.765 161.038 142.85 159.72C144.934 158.402 146.454 156.57 147.189 154.491C147.924 152.413 147.836 150.195 146.937 148.16L146.838 147.936C145.933 146.027 144.35 144.387 142.296 143.232C140.241 142.077 137.812 141.459 135.325 141.46ZM61.2042 141.46C57.9279 141.46 54.7857 142.533 52.469 144.443C50.1523 146.352 48.8507 148.942 48.8507 151.642C48.8507 154.343 50.1523 156.933 52.469 158.842C54.7857 160.752 57.9279 161.824 61.2042 161.824C64.4805 161.824 67.6227 160.752 69.9394 158.842C72.2561 156.933 73.5577 154.343 73.5577 151.642C73.5577 148.942 72.2561 146.352 69.9394 144.443C67.6227 142.533 64.4805 141.46 61.2042 141.46ZM73.5577 100.732H42.674V110.914H73.5577V100.732ZM141.502 85.4589H122.971V95.6409H141.502V85.4589Z" fill="#5DBE8A"/>
<path d="M94.5608 38.2845C102.494 36.3044 107.016 29.3283 104.611 22.7822C102.206 16.2361 93.7472 12.5004 85.8143 14.4806C77.8815 16.4608 73.3589 23.4368 75.7642 29.9829C78.1695 36.529 86.628 40.2647 94.5608 38.2845ZM45.3722 134.624C65.5648 129.583 86.1654 133.285 80.0428 116.622C73.9203 99.9592 65.5648 129.583 45.3722 134.624C25.1795 139.664 39.2496 110.061 45.3722 126.724C51.4947 143.387 25.1795 139.664 45.3722 134.624ZM45.3722 134.624C59.0743 131.203 75.8882 105.315 80.0428 116.622C84.1974 127.929 59.0743 131.203 45.3722 134.624C31.67 138.044 49.5268 138.031 45.3722 126.724C41.2176 115.417 31.67 138.044 45.3722 134.624ZM51.4947 86.0666L80.6946 96.9688L91.6277 126.724L106.051 123.123L92.494 86.2272L71.5991 76.5003L83.6592 57.8975L91.1778 61.2182C103.396 66.6142 117.405 68.3147 132.549 64.5343L128.176 52.6324C117.359 55.3326 107.393 53.9223 98.9341 50.1865L81.0773 42.3C76.5968 40.8197 72.5537 40.5296 68.2267 41.6097C63.8997 42.6898 60.7312 44.7801 59.4423 47.7005L45.3722 69.4038C43.3622 72.5043 43.0131 75.8398 44.1064 78.8153C45.4184 82.3859 47.9541 85.0013 51.4947 86.0666ZM121.996 100.694C101.804 105.734 115.874 99.9592 121.996 116.622C128.119 133.285 113.822 139.664 134.015 134.624C154.207 129.583 140.137 128.38 134.015 111.718C127.892 95.055 142.189 95.653 121.996 100.694ZM134.015 134.624C120.313 138.044 126.151 127.929 121.996 116.622C128.415 113.866 108.294 104.114 121.996 100.694C135.698 97.2732 129.86 100.411 134.015 111.718C138.169 123.025 147.717 131.203 134.015 134.624Z" fill="#5DBE8A"/>
<path d="M75.5 152C75.5 158.619 69.3114 164.5 61 164.5C52.6886 164.5 46.5 158.619 46.5 152C46.5 145.381 52.6886 139.5 61 139.5C69.3114 139.5 75.5 145.381 75.5 152Z" stroke="#8AD0AB" stroke-width="5"/>
<path d="M149.5 152C149.5 158.619 143.311 164.5 135 164.5C126.689 164.5 120.5 158.619 120.5 152C120.5 145.381 126.689 139.5 135 139.5C143.311 139.5 149.5 145.381 149.5 152Z" stroke="#8AD0AB" stroke-width="5"/>
<path d="M73.9282 17.0208L80.4282 4.65202L90.4002 4.65197L98.8862 17.0208L76.9282 28.3356L73.9282 17.0208Z" fill="#5DBE8A"/>
<path d="M75.8095 27.6403C75.9614 27.9655 76.2362 28.2171 76.5736 28.3398C76.911 28.4624 77.2832 28.446 77.6085 28.2941L99.6837 17.9878C100.009 17.836 100.261 17.5611 100.383 17.2238C100.506 16.8864 100.489 16.5141 100.338 16.1889L99.1924 13.7361C99.0406 13.4108 98.7657 13.1592 98.4283 13.0366C98.091 12.914 97.7187 12.9304 97.3934 13.0822L75.3182 23.3885C74.9929 23.5403 74.7413 23.8152 74.6187 24.1526C74.4961 24.4899 74.5125 24.8622 74.6644 25.1875L75.8095 27.6403Z" stroke="#8AD0AB" stroke-width="4" stroke-linecap="round" stroke-linejoin="round"/>
<path d="M80.8494 12.8397L78.0926 6.93476C77.9464 6.62155 77.9354 6.26084 78.062 5.93198C78.1885 5.60313 78.4424 5.33307 78.7677 5.18121L81.2205 4.03608C81.5457 3.88422 81.9158 3.86301 82.2492 3.97711C82.5826 4.09121 82.852 4.33127 82.9982 4.64449L85.755 10.5494" stroke="#8AD0AB" stroke-width="4" stroke-linecap="round" stroke-linejoin="round"/>
<path d="M76.2722 22.9432L74.4909 19.1278C73.546 17.1039 73.4438 14.7876 74.2068 12.6884C74.9697 10.5892 76.5353 8.87905 78.5592 7.93417V7.93417" stroke="#8AD0AB" stroke-width="4" stroke-linecap="round" stroke-linejoin="round"/>
<path d="M83.4646 5.6438C85.3439 4.76641 87.5216 4.72894 89.5186 5.53961C91.5155 6.35029 93.1683 7.94271 94.1131 9.96657L95.8945 13.782" stroke="#8AD0AB" stroke-width="4" stroke-linecap="round" stroke-linejoin="round"/>
</svg>
