<svg width="160" height="167" viewBox="0 0 160 167" fill="none" xmlns="http://www.w3.org/2000/svg">
<path d="M116.795 60.0947C118.433 60.0947 120.004 60.6311 121.162 61.5859C122.321 62.5406 122.971 63.8355 122.971 65.1858V70.2768H153.855V100.823H141.384L158.346 139.235C159.554 141.819 160.111 144.579 159.982 147.347C159.852 150.114 159.039 152.831 157.592 155.331C156.145 157.83 154.094 160.06 151.566 161.885C149.038 163.709 146.084 165.089 142.887 165.94C139.689 166.791 136.315 167.096 132.969 166.835C129.624 166.575 126.378 165.755 123.431 164.425C120.483 163.095 117.895 161.284 115.826 159.101C113.757 156.919 112.25 154.412 111.396 151.733H85.1328C83.729 156.202 80.5261 160.144 76.0487 162.916C71.5712 165.688 66.0845 167.125 60.487 166.991C54.8895 166.858 49.5129 165.162 45.2377 162.181C40.9625 159.2 38.042 155.11 36.9544 150.583C34.9527 149.721 33.2759 148.423 32.1063 146.831C30.9367 145.239 30.3191 143.413 30.3206 141.551V90.6409C30.3206 89.2907 30.9713 87.9958 32.1297 87.041C33.288 86.0863 34.8591 85.5499 36.4973 85.5499H79.7344C81.3725 85.5499 82.9436 86.0863 84.102 87.041C85.2603 87.9958 85.9111 89.2907 85.9111 90.6409V116.096C85.9111 117.446 86.5619 118.741 87.7202 119.696C88.8786 120.651 90.4497 121.187 92.0878 121.187H104.441C106.079 121.187 107.651 120.651 108.809 119.696C109.967 118.741 110.618 117.446 110.618 116.096V70.2768H92.0878V60.0947H116.795ZM135.325 136.46C132.698 136.461 130.139 137.152 128.021 138.433C125.903 139.713 124.336 141.517 123.546 143.583C122.757 145.648 122.787 147.867 123.631 149.917C124.476 151.967 126.092 153.742 128.244 154.984C130.397 156.226 132.973 156.869 135.599 156.822C138.226 156.775 140.765 156.038 142.85 154.72C144.934 153.402 146.454 151.57 147.189 149.491C147.924 147.413 147.836 145.195 146.937 143.16L146.838 142.936C145.933 141.027 144.35 139.387 142.296 138.232C140.241 137.077 137.812 136.459 135.325 136.46V136.46ZM61.2042 136.46C57.9279 136.46 54.7857 137.533 52.469 139.443C50.1523 141.352 48.8507 143.942 48.8507 146.642C48.8507 149.343 50.1523 151.933 52.469 153.842C54.7857 155.752 57.9279 156.824 61.2042 156.824C64.4805 156.824 67.6227 155.752 69.9394 153.842C72.2561 151.933 73.5577 149.343 73.5577 146.642C73.5577 143.942 72.2561 141.352 69.9394 139.443C67.6227 137.533 64.4805 136.46 61.2042 136.46ZM73.5577 95.732H42.674V105.914H73.5577V95.732ZM141.502 80.4589H122.971V90.6409H141.502V80.4589Z" fill="#5DBE8A"/>
<path d="M94.5608 33.2845C102.494 31.3044 107.016 24.3283 104.611 17.7822C102.206 11.2361 93.7472 7.50039 85.8143 9.48059C77.8815 11.4608 73.3589 18.4368 75.7642 24.9829C78.1695 31.529 86.628 35.2647 94.5608 33.2845ZM45.3722 129.624C65.5648 124.583 86.1654 128.285 80.0428 111.622C73.9203 94.9592 65.5648 124.583 45.3722 129.624C25.1795 134.664 39.2496 105.061 45.3722 121.724C51.4947 138.387 25.1795 134.664 45.3722 129.624ZM45.3722 129.624C59.0743 126.203 75.8882 100.315 80.0428 111.622C84.1974 122.929 59.0743 126.203 45.3722 129.624C31.67 133.044 49.5268 133.031 45.3722 121.724C41.2176 110.417 31.67 133.044 45.3722 129.624ZM51.4947 81.0666L80.6946 91.9688L91.6277 121.724L106.051 118.123L92.494 81.2272L71.5991 71.5003L83.6592 52.8975L91.1778 56.2182C103.396 61.6142 117.405 63.3147 132.549 59.5343L128.176 47.6324C117.359 50.3326 107.393 48.9223 98.9341 45.1865L81.0773 37.3C76.5968 35.8197 72.5537 35.5296 68.2267 36.6097C63.8997 37.6898 60.7312 39.7801 59.4423 42.7005L45.3722 64.4038C43.3622 67.5043 43.0131 70.8398 44.1064 73.8153C45.4184 77.3859 47.9541 80.0013 51.4947 81.0666ZM121.996 95.6935C101.804 100.734 115.874 94.9592 121.996 111.622C128.119 128.285 113.822 134.664 134.015 129.624C154.207 124.583 140.137 123.38 134.015 106.718C127.892 90.0549 142.189 90.653 121.996 95.6935ZM134.015 129.624C120.313 133.044 126.151 122.929 121.996 111.622C128.415 108.866 108.294 99.1139 121.996 95.6935C135.698 92.2732 129.86 95.4108 134.015 106.718C138.169 118.025 147.717 126.203 134.015 129.624Z" fill="#5DBE8A"/>
<path d="M75.5 147C75.5 153.619 69.3114 159.5 61 159.5C52.6886 159.5 46.5 153.619 46.5 147C46.5 140.381 52.6886 134.5 61 134.5C69.3114 134.5 75.5 140.381 75.5 147Z" stroke="#8AD0AB" stroke-width="5"/>
<path d="M149.5 147C149.5 153.619 143.311 159.5 135 159.5C126.689 159.5 120.5 153.619 120.5 147C120.5 140.381 126.689 134.5 135 134.5C143.311 134.5 149.5 140.381 149.5 147Z" stroke="#8AD0AB" stroke-width="5"/>
<g clip-path="url(#clip0)">
<path d="M75.9301 23.6328C75.7997 21.6642 76.0675 19.6351 76.7776 17.6633C79.5401 9.99127 87.9917 6.0148 95.6637 8.77736C103.336 11.5399 107.312 19.9915 104.55 27.6635L90.6636 22.6634L88.6566 28.2154C87.6891 30.9023 84.7334 32.293 82.0465 31.3254C79.3595 30.3579 77.9689 27.4022 78.9364 24.7153L75.9301 23.6328Z" fill="#E6EA2D" stroke="black" stroke-width="4" stroke-miterlimit="2" stroke-linecap="round" stroke-linejoin="round"/>
<path d="M83.3035 27.8564C82.5398 27.5814 82.1399 26.7315 82.4149 25.9678C82.6899 25.2041 83.5398 24.8042 84.3035 25.0792C85.0673 25.3542 85.4671 26.2041 85.1921 26.9678C84.9171 27.7316 84.0672 28.1314 83.3035 27.8564Z" fill="black"/>
<path d="M88.6637 28.2179L100.161 35.4952C97.8203 37.1387 95.4789 38.8054 92.6066 39.0496L86.025 31.1894" stroke="black" stroke-width="4" stroke-miterlimit="2" stroke-linecap="round" stroke-linejoin="round"/>
</g>
<path d="M53.4735 30.2289L46.8442 34.9612C45.5268 35.9006 44.2271 37.4437 43.2309 39.251L35.2963 53.6612C34.3017 55.4694 33.6927 57.3927 33.6032 59.0083L33.1489 67.1407C33.0578 68.7574 33.4936 69.935 34.3605 70.4144L44.3648 75.923C45.2328 76.401 46.4609 76.141 47.7788 75.2002C49.0967 74.2594 50.3965 72.715 51.3923 70.9065L66.4105 43.6319C67.4063 41.8235 68.0164 39.8992 68.1067 38.2825C68.1971 36.6658 67.7601 35.489 66.8921 35.011L56.8877 29.5023C56.0191 29.0261 54.791 29.2875 53.4735 30.2289V30.2289ZM53.4465 54.2656C52.1188 56.6768 50.3857 58.7361 48.6285 59.9905C46.8713 61.2448 45.2339 61.5915 44.0765 60.9542C43.7871 60.7949 43.6415 60.4026 43.6716 59.8637C43.7017 59.3248 43.9051 58.6834 44.237 58.0806C44.5689 57.4778 45.0022 56.963 45.4415 56.6494C45.8808 56.3358 46.2901 56.2491 46.5795 56.4084C47.1582 56.7271 47.9769 56.5537 48.8555 55.9266C49.7341 55.2994 50.6007 54.2697 51.2645 53.0641C51.9283 51.8585 52.3351 50.5757 52.3953 49.4979C52.4555 48.42 52.1643 47.6355 51.5856 47.3169C51.2962 47.1576 51.1506 46.7653 51.1807 46.2264C51.2108 45.6875 51.4142 45.0461 51.7461 44.4433C52.078 43.8405 52.5113 43.3256 52.9506 43.012C53.3899 42.6984 53.7992 42.6118 54.0886 42.7711C55.246 43.4084 55.8285 44.9774 55.7081 47.1331C55.5877 49.2887 54.7742 51.8543 53.4465 54.2656ZM36.6316 61.5645L36.9061 56.6506C36.9466 56.1052 37.151 55.4666 37.4783 54.8626L45.4129 40.4525C45.7483 39.8529 46.1787 39.3388 46.6179 39.013L50.6236 36.1536L36.6316 61.5645Z" fill="black"/>
<rect x="54.3513" y="33.8436" width="11.209" height="34.8724" transform="rotate(28.1536 54.3513 33.8436)" fill="black"/>
<defs>
<clipPath id="clip0">
<rect width="35.4213" height="35.4213" fill="white" transform="matrix(-0.940863 -0.338787 -0.338787 0.940863 113.327 12.0002)"/>
</clipPath>
</defs>
</svg>
